<svg xmlns="http://www.w3.org/2000/svg" xmlns:xlink="http://www.w3.org/1999/xlink" width="134" height="134" viewBox="0 0 134 134"><defs><clipPath id="a"><circle cx="57.5" cy="57.5" r="57.5"/></clipPath><clipPath id="c"><path d="M47.526,102.084l31.989,8.828a13.927,13.927,0,0,1,8.141,7.567v11.236H-27V118.479a13.612,13.612,0,0,1,8.141-7.567l31.989-8.828V85h34.4Z" transform="translate(27 -85)" fill="#649230"/></clipPath><clipPath id="d"><path d="M47.526,102.084l31.989,8.828a13.927,13.927,0,0,1,8.141,7.567v11.236H-27V118.479a13.612,13.612,0,0,1,8.141-7.567l31.989-8.828V85h34.4Z" transform="translate(27 -85)"/></clipPath><clipPath id="f"><rect width="36" height="6" transform="translate(0.017 -0.009)"/></clipPath></defs><g transform="translate(-171 -1798)"><circle cx="65.5" cy="65.5" r="65.5" transform="translate(172 1799)" fill="#649230" opacity="0.2"/><rect width="134" height="134" transform="translate(171 1798)" fill="none"/><g transform="translate(15704 -7641)"><g transform="translate(-15524 9440)"><g transform="translate(0 0)"><g clip-path="url(#a)"><path d="M47.526,102.084l31.989,8.828a13.927,13.927,0,0,1,8.141,7.567v11.236H-27V118.479a13.612,13.612,0,0,1,8.141-7.567l31.989-8.828V85h34.4Z" transform="translate(27 -15.06)" fill="#e6c19c"/></g><g clip-path="url(#a)"><g transform="translate(0 69.94)" opacity="0.8" clip-path="url(#c)"><path d="M-27,82H87.655v48.155H-27Zm57.328,34.4c12.612,0,22.931-7.223,22.931-16.052S42.94,84.293,30.328,84.293,7.4,91.516,7.4,100.345,17.716,116.4,30.328,116.4Z" transform="translate(27 -85.44)" fill="#649230"/></g><g transform="translate(0 69.94)" clip-path="url(#d)"><path d="M26.268,113.27a16.146,16.146,0,0,1-6.191-1.261c-1.949-1.032-9.172-6.994-11.695-9.516-3.21-3.44-4.816-7.8-5.274-15.249S.7,53.191.7,47.114C.7,38.515,7.235,25.1,26.039,25.1h.229c18.918.115,25.339,13.415,25.339,22.014,0,6.077-1.949,32.677-2.408,40.129s-2.064,11.695-5.274,15.249c-2.408,2.637-9.631,8.484-11.695,9.516a14.214,14.214,0,0,1-5.962,1.261Z" transform="translate(31.059 -93.778)" fill="#d4b08c"/></g><g transform="translate(0 69.94)" clip-path="url(#d)"><path d="M26.371,82C11.809,82,0,90.484,0,100.918s11.809,18.918,26.371,18.918,26.371-8.484,26.371-18.918S40.932,82,26.371,82Zm0,33.25c-12.039,0-21.784-6.879-21.784-15.478s9.746-15.478,21.784-15.478,21.784,6.879,21.784,15.478S38.409,115.25,26.371,115.25Z" transform="translate(30.957 -85.44)" fill="#649230"/></g></g><path d="M25.931,106.5a14.68,14.68,0,0,1-5.5-1.032A71.789,71.789,0,0,1,9.994,98.245C7.128,95.608,5.637,92.4,5.178,86.779S3,61.211,3,56.625C3,50.09,8.847,40,25.931,40h0c17.084,0,22.931,10.09,22.931,16.625,0,4.586-1.72,24.651-2.178,30.269s-1.834,8.828-4.816,11.466a78.588,78.588,0,0,1-10.434,7.223,17.311,17.311,0,0,1-5.5.917Z" transform="translate(31.397 -21.655)" fill="#f2cea5"/><path d="M32.022,85.778a10.416,10.416,0,0,1-9.287,2.752c-3.1-.688-5.389-2.293-6.535-4.93Z" transform="translate(33.331 -15.266)" fill="#a3705f"/><path d="M32.022,85.778a10.416,10.416,0,0,1-9.287,2.752c-3.1-.688-5.389-2.293-6.535-4.93Z" transform="translate(33.331 -15.266)" fill="none" stroke="#a3705f" stroke-linecap="round" stroke-linejoin="round" stroke-width="1"/><g transform="translate(38.983 47.009)"><g clip-path="url(#f)"><circle cx="2.5" cy="2.5" r="2.5" transform="translate(26.017 1.991)" fill="#291f21"/></g><g clip-path="url(#f)"><ellipse cx="2" cy="2.5" rx="2" ry="2.5" transform="translate(6.017 1.991)" fill="#291f21"/></g></g><path d="M8,66.44S9.261,63,14.994,63c3.9,0,6.191,1.72,7.338,3.44" transform="translate(32.129 -18.284)" fill="none" stroke="#cc9872" stroke-width="2"/><path d="M40.02,66.44S38.759,63,33.026,63C27.522,63,25,66.44,25,68.733V79.052" transform="translate(34.621 -18.284)" fill="none" stroke="#bb8660" stroke-width="2"/><path d="M43.854,76.494s.917-7.223,4.242-8.255c.459-2.064,1.72-8.026,1.72-11.351s-.344-6.535-2.178-9.287a12.378,12.378,0,0,0-8.714-4.7c-2.637,1.605-8.828,5.274-10.778,7.453-1.032,1.147.459,2.064.459,2.064a16.482,16.482,0,0,1,1.949-.688c2.866-.8,9.172-1.376,11.122,1.491,2.408,3.44,2.408,13.529,2.408,15.02C44.084,69.615,43.854,76.494,43.854,76.494Z" transform="translate(35.028 -21.23)" fill="#452228"/><path d="M.72,69.514c3.325,1.147,4.242,8.255,4.242,8.255s-.229-6.879-.229-8.255c0-1.834.229-10.434,3.9-14.561,4.128-4.586,9.631-6.077,12.727-4.013,1.605,1.032,6.994,6.306,12.727,1.949,3.44-2.637,9.746-8.6,9.746-8.6s-3.325-10.2-18.459-9.058A51,51,0,0,1,11.841,34.2s-.115,2.866,1.032,4.357C3.357,41.309.261,48.188-.656,53.462A14.232,14.232,0,0,0-1,56.558v1.605C-1,61.488.261,67.335.72,69.514Z" transform="translate(30.81 -22.505)" fill="#6b363e"/></g></g><g transform="translate(-15511.377 9497.204)"><path d="M85.726,0H4.83A4.83,4.83,0,0,0,0,4.83V59.163a4.83,4.83,0,0,0,4.83,4.83H31.393v4.83h-8.34a4.934,4.934,0,0,0-4.93,4.83h53.1a4.934,4.934,0,0,0-4.93-4.83H59.163v-4.83H85.726a4.83,4.83,0,0,0,4.83-4.83V4.83A4.83,4.83,0,0,0,85.726,0Zm1.207,56.748H3.622V4.83H86.933Z" fill="#649230"/><rect width="87" height="57" transform="translate(1.377 1.796)" fill="#649230"/></g><path d="M-1067.623,692V632.225q.224-.021.453-.021h80.9a4.83,4.83,0,0,1,4.829,4.829v54.334a4.874,4.874,0,0,1-.041.633Z" transform="translate(-14439.377 8865)" fill="#7da153"/></g></g></svg>