<svg xmlns="http://www.w3.org/2000/svg" width="134" height="140" viewBox="0 0 134 140"><g transform="translate(-468 -1799)"><circle cx="65.5" cy="65.5" r="65.5" transform="translate(469 1799)" fill="#649230" opacity="0.2"/><g transform="translate(0 85)"><rect width="134" height="134" transform="translate(468 1720)" fill="none"/><g transform="translate(467 1719)"><path d="M13.124,68.548A8.632,8.632,0,0,1,12,64.29C12,59.514,14.161,47,16.323,47S29.29,61.675,29.29,66.452a6.763,6.763,0,0,1-.3,2.075c-.973,3.2-4.344,4.409-8.343,4.409A8.66,8.66,0,0,1,13.124,68.548Z" transform="translate(12.774 53.419)" fill="#e7544c"/><path d="M44.123,68.613A8.645,8.645,0,0,1,28,64.29C28,59.514,34.484,47,36.645,47S45.29,59.514,45.29,64.29A8.621,8.621,0,0,1,44.123,68.613Z" transform="translate(31.355 53.419)" fill="#e7544c"/><path d="M60.167,68.548a8.66,8.66,0,0,1-7.521,4.387c-4,0-7.37-1.21-8.343-4.409a6.763,6.763,0,0,1-.3-2.075C44,61.675,54.807,47,56.968,47s4.323,12.514,4.323,17.29a8.631,8.631,0,0,1-1.123,4.257Z" transform="translate(49.935 53.419)" fill="#e7544c"/><path d="M14.806,31v8.645H11a4.323,4.323,0,0,1-3.869-2.4L4,31Z" transform="translate(3.484 34.839)" fill="#bfbfbf"/><path d="M65.806,31l-3.134,6.246a4.323,4.323,0,0,1-3.869,2.4H55V31Z" transform="translate(62.71 34.839)" fill="#bfbfbf"/><path d="M18.29,27v8.645H3.161A2.161,2.161,0,0,1,1,33.484V29.161A2.161,2.161,0,0,1,3.161,27Z" transform="translate(0 30.194)" fill="#7da153"/><path d="M72.29,29.161v4.323a2.161,2.161,0,0,1-2.161,2.161H55V27H70.129A2.161,2.161,0,0,1,72.29,29.161Z" transform="translate(62.71 30.194)" fill="#7da153"/><rect width="98" height="9" transform="translate(19 48)" fill="#7da153"/><path d="M45.29,19.645v4.323H28V19.645a8.645,8.645,0,1,1,17.29,0Z" transform="translate(31.355 11.613)" fill="#7da153"/><path d="M108.419,29.968H9a7.6,7.6,0,0,1,6.4-7.5L50.065,17h17.29l34.667,5.468a7.6,7.6,0,0,1,6.4,7.5Z" transform="translate(9.29 18.581)" fill="#e3e3e3"/><path d="M108.419,83.194a8.645,8.645,0,0,1-7.608,8.58,8.632,8.632,0,0,0,1.124-4.258c0-4.776-2.161-17.29-4.323-17.29S84.645,84.9,84.645,89.677a6.763,6.763,0,0,0,.3,2.075l-.3.086H66.188a8.621,8.621,0,0,0,1.167-4.323c0-4.776-6.484-17.29-8.645-17.29s-8.645,12.514-8.645,17.29a8.621,8.621,0,0,0,1.167,4.323H32.774l-.3-.086a6.763,6.763,0,0,0,.3-2.075c0-4.776-10.806-19.452-12.968-19.452s-4.323,12.514-4.323,17.29a8.631,8.631,0,0,0,1.123,4.257A8.645,8.645,0,0,1,9,83.194V27h99.419Z" transform="translate(9.29 30.194)" fill="#e3e3e3"/><path d="M102.022,19.727,99.7,19.36A4.323,4.323,0,0,1,95.452,22.9H21.968a4.323,4.323,0,0,1-4.245-3.545l-2.326.367a7.6,7.6,0,0,0-6.4,7.5h99.419a7.6,7.6,0,0,0-6.4-7.5Z" transform="translate(9.29 21.321)" fill="#bfbfbf"/><path d="M38.806,19.645a4.323,4.323,0,0,1-.975-8.524A8.3,8.3,0,0,0,36.645,11,8.645,8.645,0,0,0,28,19.645v4.323H45.29V19.645Z" transform="translate(31.355 11.613)" fill="#649230"/><path d="M67.968,33.484H63.645a4.323,4.323,0,0,1-4.323-4.323V27H55v8.645H70.129a2.161,2.161,0,0,0,2.161-2.161V29.161A4.323,4.323,0,0,1,67.968,33.484Z" transform="translate(62.71 30.194)" fill="#649230"/><path d="M61.484,33.161h3.242L65.806,31H55v8.645h2.161V37.484A4.323,4.323,0,0,1,61.484,33.161Z" transform="translate(62.71 34.839)" fill="#a3a3a3"/><path d="M5.323,33.484H9.645a4.323,4.323,0,0,0,4.323-4.323V27H18.29v8.645H3.161A2.161,2.161,0,0,1,1,33.484V29.161A4.323,4.323,0,0,0,5.323,33.484Z" transform="translate(0 30.194)" fill="#649230"/><path d="M8.323,33.161H5.081L4,31H14.806v8.645H12.645V37.484A4.323,4.323,0,0,0,8.323,33.161Z" transform="translate(3.484 34.839)" fill="#a3a3a3"/><path d="M41.1,65.409a6.9,6.9,0,0,1-11.217,0A5.276,5.276,0,0,1,29,62.526C29,59.343,33.863,51,35.484,51s6.484,8.343,6.484,11.526A5.276,5.276,0,0,1,41.1,65.409Z" transform="translate(32.516 58.065)" fill="#c74841"/><path d="M38.062,63.806A4.323,4.323,0,0,1,30,61.645C30,59.268,33.242,53,34.323,53s4.323,6.268,4.323,8.645A4.323,4.323,0,0,1,38.062,63.806Z" transform="translate(33.677 60.387)" fill="#21abab"/><path d="M57.125,65.366a6.672,6.672,0,0,1-5.641,2.924c-3,0-5.529-.806-6.268-2.939A4.079,4.079,0,0,1,45,63.968C45,60.784,53.105,51,54.726,51s3.242,8.343,3.242,11.526a5.263,5.263,0,0,1-.843,2.84Z" transform="translate(51.096 58.065)" fill="#c74841"/><path d="M54.083,63.774a4.323,4.323,0,0,1-3.761,2.194c-2,0-3.674-.605-4.171-2.2A3.382,3.382,0,0,1,46,62.726C46,60.348,51.4,53,52.484,53s2.161,6.268,2.161,8.645a4.323,4.323,0,0,1-.562,2.129Z" transform="translate(52.258 60.387)" fill="#21abab"/><path d="M13.843,65.366a6.668,6.668,0,0,0,5.641,2.924c3,0,5.526-.806,6.257-2.939a4.079,4.079,0,0,0,.227-1.383c0-3.184-8.1-12.968-9.726-12.968S13,59.343,13,62.526a5.263,5.263,0,0,0,.843,2.84Z" transform="translate(13.935 58.065)" fill="#c74841"/><path d="M14.562,63.774a4.323,4.323,0,0,0,3.761,2.194c2,0,3.674-.605,4.171-2.2a3.383,3.383,0,0,0,.151-1.037c0-2.377-5.4-9.726-6.484-9.726S14,59.268,14,61.645A4.323,4.323,0,0,0,14.562,63.774Z" transform="translate(15.097 60.387)" fill="#21abab"/><path d="M21.968,27H9V83.194a8.645,8.645,0,0,0,7.608,8.58,8.632,8.632,0,0,1-1.124-4.258c0-4.776,2.161-17.29,4.323-17.29S32.774,84.9,32.774,89.677a6.763,6.763,0,0,1-.3,2.075l.3.086H51.232a8.621,8.621,0,0,1-1.167-4.323A31.013,31.013,0,0,1,53.97,76.334,54.032,54.032,0,0,1,21.968,27Z" transform="translate(9.29 30.194)" fill="#bfbfbf"/><path d="M35,51.5a22.694,22.694,0,0,1,2.161,7.565,8.621,8.621,0,0,1-1.167,4.323H54.452l.3-.086a6.763,6.763,0,0,1-.3-2.075,21.814,21.814,0,0,1,3.782-8.645H45.806A54.326,54.326,0,0,1,35,51.5Z" transform="translate(39.484 58.645)" fill="#bfbfbf"/><path d="M51.955,56.492a47.979,47.979,0,0,1,.648,6.637,8.631,8.631,0,0,1-1.123,4.257,8.645,8.645,0,0,0,7.607-8.579V48a8.632,8.632,0,0,1-7.132,8.492Z" transform="translate(58.622 54.581)" fill="#bfbfbf"/><path d="M9,23H21.968a4.323,4.323,0,0,0,4.323,4.323h82.129v4.323H9Z" transform="translate(9.29 25.548)" fill="#649230"/><rect width="5" height="26" rx="1" transform="translate(109 72)" fill="#fff"/><rect width="5" height="6" rx="1" transform="translate(109 64)" fill="#fff"/><path d="M26.323,18.29H22a5.567,5.567,0,0,1,3.123-4.679c.845-.564,1.2-.841,1.2-1.081s-.354-.519-1.2-1.081A5.563,5.563,0,0,1,22,6.764a5.567,5.567,0,0,1,3.123-4.684c.845-.562,1.2-.836,1.2-1.081h4.323a5.567,5.567,0,0,1-3.123,4.679c-.845.564-1.2.841-1.2,1.081s.354.519,1.2,1.081a5.563,5.563,0,0,1,3.123,4.686,5.567,5.567,0,0,1-3.123,4.684C26.677,17.772,26.323,18.046,26.323,18.29Z" transform="translate(24.387)" fill="#c74841"/><path d="M34.323,18.29H30a5.567,5.567,0,0,1,3.123-4.679c.845-.564,1.2-.841,1.2-1.081s-.354-.519-1.2-1.081A5.563,5.563,0,0,1,30,6.764a5.567,5.567,0,0,1,3.123-4.684c.845-.562,1.2-.836,1.2-1.081h4.323a5.567,5.567,0,0,1-3.123,4.679c-.845.564-1.2.841-1.2,1.081s.354.519,1.2,1.081a5.563,5.563,0,0,1,3.123,4.686,5.567,5.567,0,0,1-3.123,4.684C34.677,17.772,34.323,18.046,34.323,18.29Z" transform="translate(33.677)" fill="#c74841"/><path d="M42.323,18.29H38a5.567,5.567,0,0,1,3.123-4.679c.845-.564,1.2-.841,1.2-1.081s-.354-.519-1.2-1.081A5.563,5.563,0,0,1,38,6.764a5.567,5.567,0,0,1,3.123-4.684c.845-.562,1.2-.836,1.2-1.081h4.323a5.567,5.567,0,0,1-3.123,4.679c-.845.564-1.2.841-1.2,1.081s.354.519,1.2,1.081a5.563,5.563,0,0,1,3.123,4.686,5.567,5.567,0,0,1-3.123,4.684C42.677,17.772,42.323,18.046,42.323,18.29Z" transform="translate(42.968)" fill="#c74841"/></g></g></g></svg>