<svg xmlns="http://www.w3.org/2000/svg" width="134" height="134" viewBox="0 0 134 134"><g transform="translate(-765 -1798)"><circle cx="65.5" cy="65.5" r="65.5" transform="translate(766 1799)" fill="#649230" opacity="0.2"/><g transform="translate(297 78)"><rect width="134" height="134" transform="translate(468 1720)" fill="none"/></g><g transform="translate(765.316 1799)"><g transform="translate(-0.317)"><ellipse cx="15.5" cy="16" rx="15.5" ry="16" transform="translate(96 100)" fill="#575757"/><path d="M95.475,430.068A15.929,15.929,0,0,1,74.407,409,31.934,31.934,0,0,0,95.475,430.068Z" transform="translate(22.897 -299.475)" fill="#4a4a4a"/><circle cx="4.5" cy="4.5" r="4.5" transform="translate(107 111)" fill="#6e6e6e"/><path d="M160,168v9.1h4.552a4.552,4.552,0,0,0,4.552-4.552h0A4.552,4.552,0,0,0,164.552,168Z" transform="translate(-75.481 -127.035)" fill="#fda5a3"/><rect width="35" height="10" transform="translate(50 40)" fill="#709941"/><path d="M84.552,152h13.32a11.234,11.234,0,0,1,8.772,4.216h0a11.234,11.234,0,0,1-.142,14.21l-3.8,4.555a4.552,4.552,0,0,0-.752,4.548l10.42,27.091H96.443l-16.21-48.629A4.552,4.552,0,0,1,84.552,152Z" transform="translate(4.006 -115.586)" fill="#8aaa65"/><path d="M242.138,274.138h3.414a5.69,5.69,0,0,1,5.69,5.69h0a5.69,5.69,0,0,1-5.69,5.69h-9.1a5.69,5.69,0,0,1-5.69-5.69V265.034a6.828,6.828,0,0,0-6.828-6.828H212.552A4.552,4.552,0,0,1,208,253.655V240h18.207v4.552a4.552,4.552,0,0,0,4.552,4.552h2.276a9.1,9.1,0,0,1,9.1,9.1Z" transform="translate(-171.274 -178.552)" fill="#575757"/><path d="M266.666,94.368l.552-.552a4.551,4.551,0,0,0,1.333-3.218V72H291.31v7.492a9.1,9.1,0,0,1-5.722,8.452l-2.8,1.118a4.552,4.552,0,0,0-2.861,4.226v3.746l2.276,2.276v20.483H264V100.805a9.1,9.1,0,0,1,2.666-6.437Z" transform="translate(-227.274 -58.345)" fill="#fda5a3"/><path d="M277.235,72l17.1,14.251a9.083,9.083,0,0,1-2.71,1.693l-1.6.64L274.59,75.721V72Z" transform="translate(-233.313 -58.345)" fill="#46c89d"/><path d="M298.666,140.161l.552-.552a4.552,4.552,0,0,0,1.333-3.218V136h2.666a4.552,4.552,0,0,1,3.219,1.333l7.77,7.77v20.483H296V146.6a9.1,9.1,0,0,1,2.666-6.437Z" transform="translate(-259.274 -104.138)" fill="#709941"/><rect width="37" height="42" rx="16" transform="translate(0 38)" fill="#00b378"/><path d="M396.414,169.1H360v-4.552A4.552,4.552,0,0,1,364.552,160h27.31a4.552,4.552,0,0,1,4.552,4.552Z" transform="translate(-359.688 -121.311)" fill="#00a16c"/><path d="M208,360h14.793a5.69,5.69,0,0,1,5.69,5.69h0a5.69,5.69,0,0,1-5.69,5.69h-9.1a5.69,5.69,0,0,1-5.69-5.69Z" transform="translate(-148.516 -264.414)" fill="#709941"/><path d="M286.828,304h45.517a6.828,6.828,0,0,1,6.828,6.828V313.1H280v-2.276A6.828,6.828,0,0,1,286.828,304Z" transform="translate(-279.688 -224.345)" fill="#7da153"/><rect width="5" height="7" transform="translate(16 54)" fill="#59cea7"/><path d="M172.092,157.24a9.1,9.1,0,0,0,6.437,2.666h23.539a4.552,4.552,0,0,1,4.552,4.552h0a4.552,4.552,0,0,1-4.552,4.552H173.978a9.1,9.1,0,0,1-6.437-2.666l-14.126-14.126A4.828,4.828,0,0,1,152,148.8h0a4.828,4.828,0,0,1,8.242-3.414Z" transform="translate(-110.723 -109.838)" fill="#7da153"/><path d="M152,200v9.1h4.552a4.552,4.552,0,0,0,4.552-4.552h0A4.552,4.552,0,0,0,156.552,200Z" transform="translate(-65.206 -149.931)" fill="#fda5a3"/><path d="M392,243.379V241.1a9.1,9.1,0,0,1,9.1-9.1h0a9.1,9.1,0,0,1,9.1,9.1v2.276Z" transform="translate(-382.585 -172.828)" fill="#bdecdc"/><path d="M95.2,152a11.234,11.234,0,0,1,8.772,4.216h0a11.233,11.233,0,0,1,.347,13.575l-4.9-2.45a9.1,9.1,0,0,1-4.565-5.264L91.494,152Z" transform="translate(6.68 -115.586)" fill="#b1c39c"/><path d="M91.19,274.667l7.586,19.724H82.845L80,285.857Z" transform="translate(17.605 -203.357)" fill="#7da153"/><path d="M80.721,336v12.517a5.69,5.69,0,0,0,5.69,5.69h19.278a4.552,4.552,0,0,0,3.7-1.906l8.553-11.975a4.9,4.9,0,0,1,3.984-2.05h16.663a4.9,4.9,0,0,1,2.429.645l10.674,6.1a4.98,4.98,0,0,1,2.087,6.44,4.9,4.9,0,0,1-7.126,1.946l-4.48-2.987a4.552,4.552,0,0,0-2.525-.764h-12.7a4.552,4.552,0,0,0-3.7,1.906l-7.031,9.843a4.552,4.552,0,0,1-3.7,1.906H53.411a4.552,4.552,0,0,0-9.1,0H32.928V352a6.827,6.827,0,0,0-4.292-6.339l-2.8-1.118a6.828,6.828,0,0,1-4.292-6.339V336Z" transform="translate(-21.237 -247.242)" fill="#8aaa65"/><circle cx="16" cy="16" r="16" transform="translate(12 100)" fill="#575757"/><ellipse cx="5" cy="4.5" rx="5" ry="4.5" transform="translate(23 111)" fill="#6e6e6e"/><path d="M393.033,176v31.862a4.552,4.552,0,0,1-4.552,4.552h-27.31a4.545,4.545,0,0,1-1.171-.158A36.416,36.416,0,0,0,393.033,176Z" transform="translate(-356.307 -132.759)" fill="#096"/><path d="M314.207,258.207H300.552A4.552,4.552,0,0,1,296,253.655V240A18.207,18.207,0,0,0,314.207,258.207Z" transform="translate(-259.274 -178.552)" fill="#4a4a4a"/><path d="M314.207,194.207H296V176A18.207,18.207,0,0,0,314.207,194.207Z" transform="translate(-259.274 -132.759)" fill="#649230"/><path d="M251.379,371.379h-5.69a5.69,5.69,0,0,1-5.69-5.69V360a11.379,11.379,0,0,0,11.379,11.379Z" transform="translate(-180.516 -264.414)" fill="#649230"/><path d="M391.474,430.068A15.929,15.929,0,0,1,370.407,409a31.933,31.933,0,0,0,21.068,21.068Z" transform="translate(-357.309 -299.475)" fill="#4a4a4a"/><path d="M366.828,304h29.586a36.273,36.273,0,0,0-24.082,9.1H360v-2.276A6.828,6.828,0,0,1,366.828,304Z" transform="translate(-359.688 -224.345)" fill="#709941"/><path d="M449.682,344.839l-.737-.295a6.828,6.828,0,0,1-4.292-6.339V336h12.331A36.579,36.579,0,0,0,449.682,344.839Z" transform="translate(-444.341 -247.242)" fill="#649230"/><path d="M264,90.207V72h22.759v.793a29.644,29.644,0,0,0-20.486,17.414Z" transform="translate(-222.723 -58.345)" fill="#d78d8b"/><path d="M98.421,324.937l.027.071H82.517L80,317.457A31.514,31.514,0,0,0,98.421,324.937Z" transform="translate(17.932 -233.974)" fill="#709941"/><path d="M395.185,260.83c.029.3.045.6.045.9v2.276H392a36.621,36.621,0,0,0,3.185-3.178Z" transform="translate(-367.607 -193.456)" fill="#a1c9bc"/><path d="M308.807,72l8.119,6.766a29.768,29.768,0,0,0-3.3,3.179l-7.468-6.224V72Z" transform="translate(-264.886 -58.345)" fill="#3caa86"/><path d="M226.276,26.276A7.77,7.77,0,0,1,231.77,24h20.873a7.77,7.77,0,0,1,7.77,7.77V33.1h4.552v4.552H243.208a7.829,7.829,0,0,0-7.829,7.829h0a5.779,5.779,0,0,1-5.482,5.822,5.69,5.69,0,0,1-5.9-5.686V31.77a7.77,7.77,0,0,1,2.276-5.494Z" transform="translate(-189.55 -24)" fill="#709941"/><rect width="5" height="5" transform="translate(41 7)" fill="#5ca4cc"/><path d="M339.484,58.967a5.757,5.757,0,0,1-5.441,5.154,5.69,5.69,0,0,1-5.9-5.686V44.585a7.768,7.768,0,0,1,.476-2.675,27.313,27.313,0,0,0,10.861,17.058Z" transform="translate(-293.696 -36.814)" fill="#649230"/></g></g></g></svg>