<svg xmlns="http://www.w3.org/2000/svg" width="134" height="134" viewBox="0 0 134 134"><g transform="translate(-1062 -1720)"><g transform="translate(594)"><rect width="134" height="134" transform="translate(468 1720)" fill="none"/></g><g transform="translate(1038 1699.669)"><ellipse cx="67" cy="46.207" rx="67" ry="46.207" transform="translate(24 61.563)" fill="#7da153"/><ellipse cx="53.138" cy="27.724" rx="53.138" ry="27.724" transform="translate(37.862 80.045)" fill="#649230"/><path d="M96,168v39.276a13.862,13.862,0,0,0,13.862,13.862h25.414a20.793,20.793,0,0,0,20.793,20.793h9.241A20.793,20.793,0,0,0,186.1,221.138V168Z" transform="translate(-51.207 -106.437)" fill="#9c4e3c"/><path d="M96,168v25.414a13.862,13.862,0,0,0,13.862,13.862h25.414a20.793,20.793,0,0,0,20.793,20.793h9.241A20.793,20.793,0,0,0,186.1,207.276V168Z" transform="translate(-51.207 -106.437)" fill="#b17d4d"/><rect width="90.103" height="9.241" transform="translate(44.793 61.563)" fill="#9c4e3c"/><rect width="22.871" height="4.621" transform="translate(50.091 92.273) rotate(-44.998)" fill="#9a6342"/><rect width="22.871" height="4.621" transform="translate(66.263 92.273) rotate(-44.998)" fill="#9a6342"/><rect width="22.871" height="4.621" transform="translate(82.435 92.273) rotate(-44.998)" fill="#9a6342"/><rect width="9.802" height="4.621" transform="translate(107.849 83.032) rotate(-44.998)" fill="#9a6342"/><rect width="6.535" height="4.621" transform="translate(89.367 101.515) rotate(-44.998)" fill="#9a6342"/><rect width="13.069" height="4.621" transform="translate(119.401 87.652) rotate(-44.998)" fill="#9a6342"/><rect width="6.535" height="4.621" transform="translate(96.298 110.756) rotate(-44.998)" fill="#9a6342"/><rect width="9.802" height="4.621" transform="translate(121.712 101.515) rotate(-44.998)" fill="#9a6342"/><circle cx="6.931" cy="6.931" r="6.931" transform="translate(102.552 91.597)" fill="#9c4e3c"/><path d="M297.241,282.483a9.241,9.241,0,1,1,9.241-9.241A9.241,9.241,0,0,1,297.241,282.483Zm0-13.862a4.621,4.621,0,1,0,4.621,4.621A4.621,4.621,0,0,0,297.241,268.621Z" transform="translate(-187.759 -174.713)" fill="#d69d79"/><path d="M163.931,50.5l-2.31-2.086a10.213,10.213,0,0,1,0-15.466,6.316,6.316,0,0,0,0-9.566l-2.31-2.086,3.267-2.95,2.31,2.086a10.213,10.213,0,0,1,0,15.466,6.316,6.316,0,0,0,0,9.566l2.31,2.086Z" transform="translate(-95.357 3.458)" fill="#c8d8e4"/><path d="M243.931,50.5l-2.31-2.086a10.213,10.213,0,0,1,0-15.466,6.316,6.316,0,0,0,0-9.566l-2.31-2.086,3.267-2.95,2.31,2.086a10.213,10.213,0,0,1,0,15.466,6.316,6.316,0,0,0,0,9.566l2.31,2.086Z" transform="translate(-152.254 3.458)" fill="#c8d8e4"/><path d="M323.931,50.5l-2.31-2.086a10.213,10.213,0,0,1,0-15.466,6.316,6.316,0,0,0,0-9.566l-2.31-2.086,3.267-2.95,2.31,2.086a10.213,10.213,0,0,1,0,15.466,6.316,6.316,0,0,0,0,9.566l2.31,2.086Z" transform="translate(-209.15 3.458)" fill="#c8d8e4"/><rect width="4.621" height="13.862" transform="translate(79.448 100.838)" fill="#723024"/></g></g></svg>